<?xml version="1.0" encoding="UTF-8"?>
<svg height="128px" viewBox="0 0 128 128" width="128px" xmlns="http://www.w3.org/2000/svg" xmlns:xlink="http://www.w3.org/1999/xlink">
    <linearGradient id="a" gradientUnits="userSpaceOnUse" x1="12" x2="116" y1="64" y2="64">
        <stop offset="0" stop-color="#5e5c64"/>
        <stop offset="0.05" stop-color="#c0bfbc"/>
        <stop offset="0.1" stop-color="#9a9996"/>
        <stop offset="0.9" stop-color="#9a9996"/>
        <stop offset="0.95" stop-color="#c0bfbc"/>
        <stop offset="1" stop-color="#5e5c64"/>
    </linearGradient>
    <radialGradient id="b" cx="0" cy="0" gradientTransform="matrix(0 -88.319998 88.319998 0 63.999999 104.159998)" gradientUnits="userSpaceOnUse" r="1">
        <stop offset="0" stop-color="#3d3846"/>
        <stop offset="1" stop-color="#241f31"/>
    </radialGradient>
    <clipPath id="c">
        <rect height="128" width="128"/>
    </clipPath>
    <clipPath id="d">
        <rect height="128" width="128"/>
    </clipPath>
    <filter id="e" height="100%" width="100%" x="0%" y="0%">
        <feColorMatrix in="SourceGraphic" type="matrix" values="0 0 0 0 1 0 0 0 0 1 0 0 0 0 1 0 0 0 1 0"/>
    </filter>
    <mask id="f">
        <g clip-path="url(#d)" filter="url(#e)">
            <g clip-path="url(#c)">
                <path d="m 20 22 h 88 c 4.417969 0 8 3.582031 8 8 v 78 c 0 4.417969 -3.582031 8 -8 8 h -88 c -4.417969 0 -8 -3.582031 -8 -8 v -78 c 0 -4.417969 3.582031 -8 8 -8 z m 0 0" fill="url(#a)"/>
                <path d="m 20 12 h 88 c 4.417969 0 8 3.582031 8 8 v 80 c 0 4.417969 -3.582031 8 -8 8 h -88 c -4.417969 0 -8 -3.582031 -8 -8 v -80 c 0 -4.417969 3.582031 -8 8 -8 z m 0 0" fill="#c0bfbc"/>
                <path d="m 20 14 h 88 c 3.3125 0 6 2.6875 6 6 v 80 c 0 3.3125 -2.6875 6 -6 6 h -88 c -3.3125 0 -6 -2.6875 -6 -6 v -80 c 0 -3.3125 2.6875 -6 6 -6 z m 0 0" fill="#241f31"/>
                <path d="m 21 15.839844 h 86 c 3.179688 0 5 1.980468 5 5.160156 v 78 c 0 3.179688 -1.820312 5.160156 -5 5.160156 h -86 c -3.179688 0 -5 -1.980468 -5 -5.160156 v -78 c 0 -3.179688 1.820312 -5.160156 5 -5.160156 z m 0 0" fill="url(#b)"/>
                <path d="m 46 64.066406 c 0 -6.210937 -7.085938 -5.960937 -11.207031 -8.167968 c -0.710938 -0.375 -1.046875 -0.875 -1.046875 -1.460938 c 0 -1.625 1.839844 -1.707031 4.128906 -1.707031 c 1.5 0 3.417969 0.332031 5.710938 1 l 1.332031 -4.128907 c -1.914063 -0.539062 -3.707031 -0.957031 -5.417969 -1.125 v -4.582031 h -4.457031 v 4.625 c -3.875 0.5 -6.292969 2.125 -6.292969 5.710938 c 0 6.5 6.835938 6.335937 11.207031 8.585937 c 0.585938 0.289063 0.878907 0.667969 0.878907 1.167969 c 0 1.875 -1.878907 2.082031 -4.210938 2.082031 c -2.292969 0 -5.167969 -0.917968 -7.125 -1.582031 l -1.5 4.203125 c 2.292969 1.042969 4.664062 1.667969 7.042969 1.875 v 5.546875 h 4.457031 v -5.753906 c 3.753906 -0.667969 6.5 -2.582031 6.5 -6.289063 z m 0 0" fill="#ffffff"/>
            </g>
        </g>
    </mask>
    <mask id="g">
        <g filter="url(#e)">
            <rect fill-opacity="0.8" height="128" width="128"/>
        </g>
    </mask>
    <linearGradient id="h" gradientTransform="matrix(0 0.37 -0.98462 0 295.38501 -30.360001)" gradientUnits="userSpaceOnUse" x1="300" x2="428" y1="235" y2="235">
        <stop offset="0" stop-color="#f9f06b"/>
        <stop offset="1" stop-color="#f5c211"/>
    </linearGradient>
    <clipPath id="i">
        <rect height="128" width="128"/>
    </clipPath>
    <clipPath id="j">
        <rect height="128" width="128"/>
    </clipPath>
    <path d="m 20 22 h 88 c 4.417969 0 8 3.582031 8 8 v 78 c 0 4.417969 -3.582031 8 -8 8 h -88 c -4.417969 0 -8 -3.582031 -8 -8 v -78 c 0 -4.417969 3.582031 -8 8 -8 z m 0 0" fill="url(#a)"/>
    <path d="m 20 12 h 88 c 4.417969 0 8 3.582031 8 8 v 80 c 0 4.417969 -3.582031 8 -8 8 h -88 c -4.417969 0 -8 -3.582031 -8 -8 v -80 c 0 -4.417969 3.582031 -8 8 -8 z m 0 0" fill="#c0bfbc"/>
    <path d="m 20 14 h 88 c 3.3125 0 6 2.6875 6 6 v 80 c 0 3.3125 -2.6875 6 -6 6 h -88 c -3.3125 0 -6 -2.6875 -6 -6 v -80 c 0 -3.3125 2.6875 -6 6 -6 z m 0 0" fill="#241f31"/>
    <path d="m 21 15.839844 h 86 c 3.179688 0 5 1.980468 5 5.160156 v 78 c 0 3.179688 -1.820312 5.160156 -5 5.160156 h -86 c -3.179688 0 -5 -1.980468 -5 -5.160156 v -78 c 0 -3.179688 1.820312 -5.160156 5 -5.160156 z m 0 0" fill="url(#b)"/>
    <path d="m 46 64.066406 c 0 -6.210937 -7.085938 -5.960937 -11.207031 -8.167968 c -0.710938 -0.375 -1.046875 -0.875 -1.046875 -1.460938 c 0 -1.625 1.839844 -1.707031 4.128906 -1.707031 c 1.5 0 3.417969 0.332031 5.710938 1 l 1.332031 -4.128907 c -1.914063 -0.539062 -3.707031 -0.957031 -5.417969 -1.125 v -4.582031 h -4.457031 v 4.625 c -3.875 0.5 -6.292969 2.125 -6.292969 5.710938 c 0 6.5 6.835938 6.335937 11.207031 8.585937 c 0.585938 0.289063 0.878907 0.667969 0.878907 1.167969 c 0 1.875 -1.878907 2.082031 -4.210938 2.082031 c -2.292969 0 -5.167969 -0.917968 -7.125 -1.582031 l -1.5 4.203125 c 2.292969 1.042969 4.664062 1.667969 7.042969 1.875 v 5.546875 h 4.457031 v -5.753906 c 3.753906 -0.667969 6.5 -2.582031 6.5 -6.289063 z m 0 0" fill="#ffffff"/>
    <g clip-path="url(#j)" mask="url(#f)">
        <g clip-path="url(#i)" mask="url(#g)">
            <path d="m 128 80.640625 v 47.359375 h -128 v -47.359375 z m 0 0" fill="url(#h)"/>
            <path d="m 13.308594 80.640625 l 47.355468 47.359375 h 21.214844 l -47.359375 -47.359375 z m 42.421875 0 l 47.363281 47.359375 h 21.214844 l -47.363282 -47.359375 z m 42.429687 0 l 29.839844 29.839844 v -21.210938 l -8.628906 -8.628906 z m -98.160156 7.90625 v 21.214844 l 18.238281 18.238281 h 21.214844 z m 0 0"/>
        </g>
    </g>
</svg>
